<svg xmlns="http://www.w3.org/2000/svg" width="256" height="256" viewBox="0 0 100 100"><rect width="100" height="100" fill="#016bc6" rx="20"/><path fill="#fff" d="M27.79 55.79H15.23v20.87H8.2V23.34h19.66q8.75 0 13.72 4.47 4.96 4.47 4.96 11.83 0 7.76-4.85 11.95-4.86 4.2-13.9 4.2ZM15.23 29.13v20.91h12.63q5.64 0 8.65-2.66 3-2.65 3-7.67 0-4.76-3-7.62-3.01-2.85-8.24-2.96H15.23Zm58.78 47.53h-18.5V23.34h17.43q8.68 0 13.06 3.59 4.37 3.59 4.37 10.62 0 3.73-2.12 6.61-2.12 2.87-5.79 4.45 4.33 1.21 6.83 4.59 2.51 3.39 2.51 8.08 0 7.18-4.65 11.28t-13.14 4.1Zm.25-24.94H62.54v19.19h11.61q4.91 0 7.75-2.54 2.84-2.55 2.84-7.02 0-9.63-10.48-9.63ZM62.54 29.13v16.95h10.62q4.62 0 7.38-2.31 2.77-2.3 2.77-6.26 0-4.39-2.57-6.39-2.56-1.99-7.8-1.99h-10.4Z"/></svg>