<?xml version="1.0" standalone="no"?>
<!DOCTYPE svg PUBLIC "-//W3C//DTD SVG 20010904//EN"
 "http://www.w3.org/TR/2001/REC-SVG-20010904/DTD/svg10.dtd">
<svg version="1.0" xmlns="http://www.w3.org/2000/svg"
 width="700.000000pt" height="700.000000pt" viewBox="0 0 700.000000 700.000000"
 preserveAspectRatio="xMidYMid meet">
<metadata>
Created by potrace 1.14, written by Peter Selinger 2001-2017
</metadata>
<g transform="translate(0.000000,700.000000) scale(0.100000,-0.100000)"
fill="#000000" stroke="none">
<path d="M1230 6989 c-534 -69 -972 -421 -1149 -922 -17 -49 -41 -134 -53
-190 l-23 -102 0 -2275 0 -2275 23 -102 c125 -568 527 -970 1095 -1095 l102
-23 2275 0 2275 0 102 23 c566 125 970 529 1095 1095 l23 102 0 2275 0 2275
-23 102 c-125 566 -522 964 -1090 1095 l-97 22 -2245 2 c-1235 1 -2274 -2
-2310 -7z m1020 -1643 c360 -62 618 -206 799 -446 91 -121 150 -255 187 -425
24 -111 24 -387 1 -506 -66 -336 -245 -577 -532 -719 -272 -134 -465 -160
-1217 -160 l-418 0 -2 -727 -3 -728 -245 0 -245 0 -3 1855 c-1 1020 0 1861 3
1868 4 11 145 13 792 9 668 -4 802 -7 883 -21z m3180 0 c563 -88 846 -362 890
-861 22 -247 -31 -435 -168 -606 -87 -108 -183 -184 -321 -254 l-54 -27 84
-32 c124 -46 203 -99 305 -200 181 -181 257 -377 257 -666 -1 -578 -331 -943
-948 -1047 -86 -14 -207 -17 -842 -20 l-743 -4 0 1871 0 1872 718 -5 c601 -3
734 -7 822 -21z"/>
<path d="M1070 4230 l0 -731 548 3 c526 4 550 5 627 26 214 59 367 174 443
333 22 46 45 107 52 134 21 87 29 222 19 317 -19 189 -72 302 -198 428 -99 99
-198 154 -341 192 -82 21 -106 22 -617 25 l-533 4 0 -731z"/>
<path d="M4380 4366 l0 -596 358 0 c518 0 619 12 777 89 140 69 231 168 283
309 32 88 41 263 19 369 -39 179 -141 299 -311 362 -139 51 -161 53 -658 58
l-468 5 0 -596z"/>
<path d="M4380 2710 l0 -671 503 3 c488 4 504 5 577 27 121 36 206 86 292 172
92 90 138 177 164 308 20 101 15 292 -10 386 -58 217 -204 356 -439 417 -77
20 -110 22 -584 25 l-503 4 0 -671z"/>
</g>
</svg>
